# Blender 3.3.1
# www.blender.org
mtllib stone.mtl
o Cube
v -1.337997 1.000000 -1.919374
v 1.000000 -1.000000 -1.000000
v -1.794204 -1.000000 -1.220699
v 1.000000 -1.000000 1.000000
v -1.794204 1.000000 -1.220699
v -1.000000 -1.000000 -1.000000
v -1.337997 -1.000000 -1.919374
v -1.000000 -1.000000 1.000000
v 1.875519 -1.000000 -1.000000
v 1.875519 -1.000000 1.000000
v -1.456208 -1.000000 -1.000000
v -1.456208 -1.000000 1.000000
v -1.000000 -1.000000 1.521244
v 1.000000 -1.000000 1.521244
v 1.000000 -1.000000 -1.698676
v -1.000000 -1.000000 -1.698676
v -1.000000 1.000000 -1.698676
v -1.812675 -1.000000 -1.000000
v -1.812675 -1.000000 1.000000
v -1.812675 1.000000 1.000000
v -1.812675 1.000000 -1.000000
v 0.911868 -0.980379 -1.836985
v -1.088132 -0.980379 -1.836985
v 0.911868 0.771866 -1.836985
v -1.088132 0.771866 -1.836985
v 2.033924 1.000000 -1.198500
v 2.033924 -1.000000 -1.198500
v 1.158406 -1.000000 -1.897176
v 1.158406 1.000000 -1.897176
v 1.000000 1.747172 -1.194621
v 1.000000 1.313674 -1.893297
v -1.000000 1.747172 -1.194621
v -1.000000 1.313674 -1.893297
v -1.322831 1.773241 -1.210796
v -1.322831 1.339743 -1.909472
v -1.779039 1.339743 -1.210796
v 1.000000 1.745400 1.259396
v 1.000000 1.311902 1.780641
v -1.000000 1.745400 1.259396
v -1.000000 1.311902 1.780641
v -1.249665 1.696243 1.218514
v -1.705873 1.262744 1.218514
v -1.249665 1.262744 1.739758
v -1.684574 -1.000000 1.199873
v -1.684574 1.000000 1.199873
v -1.228367 -1.000000 1.721117
v -1.228367 1.000000 1.721117
v -1.000000 -1.000000 1.763456
v -1.000000 1.000000 1.763456
v 1.000000 1.000000 1.763456
v 1.000000 -1.000000 1.763456
v 2.010657 1.000000 1.226988
v 2.010657 -1.000000 1.226988
v 1.135138 1.000000 1.748232
v 1.135138 -1.000000 1.748232
v 2.119279 1.000000 -1.000000
v 2.119279 -1.000000 -1.000000
v 2.119279 1.000000 1.000000
v 2.119279 -1.000000 1.000000
v 1.103109 1.641742 -1.129206
v 1.103109 1.208244 -1.827882
v 1.978627 1.208244 -1.129206
v 1.078506 1.592053 -1.000000
v 1.954024 1.158554 -1.000000
v 1.078506 1.592053 1.000000
v 1.954024 1.158554 1.000000
v 1.210670 1.858981 1.353857
v 1.210670 1.425482 1.875101
v 2.086189 1.425482 1.353857
v 1.000000 1.639955 1.000000
v -1.000000 1.639955 1.000000
v 1.000000 1.639955 -1.000000
v -1.000000 1.639955 -1.000000
v -1.370513 1.614760 1.022575
v -1.370513 1.614760 -0.977425
v -1.826721 1.181262 -0.977425
v -1.826721 1.181262 1.022575
vn -0.0265 0.8570 -0.5147
vn -0.2372 -0.0000 -0.9715
vn -0.1823 -0.0000 0.9832
vn -0.0000 -1.0000 -0.0000
vn 0.0090 0.0169 -0.9998
vn 0.0059 0.8493 0.5279
vn -0.8297 -0.1167 0.5459
vn 0.9187 -0.0000 -0.3950
vn 0.6572 0.6850 0.3145
vn 0.9020 -0.0000 0.4317
vn -0.9377 0.1832 0.2953
vn -0.8373 -0.0000 -0.5467
vn -0.6498 0.6839 0.3317
vn 0.3132 -0.0000 -0.9497
vn -1.0000 -0.0000 -0.0000
vn -0.1644 -0.0674 0.9841
vn -0.9965 -0.0000 -0.0834
vn -0.0000 -0.0000 -1.0000
vn 0.8479 0.5245 -0.0777
vn 0.1524 -0.9604 -0.2333
vn -0.0000 -0.9901 -0.1405
vn 0.6237 -0.0000 -0.7816
vn 0.5739 0.3917 -0.7192
vn -0.7482 -0.1071 0.6548
vn -0.0000 0.8497 -0.5272
vn -0.0000 -0.1034 -0.9946
vn 0.5429 0.1182 -0.8314
vn -0.6282 0.6611 -0.4102
vn -0.9970 -0.0773 -0.0000
vn 0.0946 0.8459 -0.5249
vn -0.9900 0.0109 -0.1404
vn -0.0678 0.9977 -0.0000
vn -0.8419 -0.0000 0.5396
vn -0.0000 0.7689 0.6394
vn -0.1010 0.9295 -0.3548
vn 0.3395 0.6856 -0.6440
vn -0.5899 0.6208 0.5163
vn -0.6836 0.7195 0.1225
vn -0.2481 0.7448 0.6194
vn -0.7525 -0.0000 0.6586
vn -0.0000 -0.0550 0.9985
vn 0.1119 -0.0000 0.9937
vn -0.0000 -0.0000 1.0000
vn 0.4833 -0.3278 0.8118
vn 0.9522 -0.0813 -0.2944
vn 0.5116 -0.0000 0.8592
vn -0.0981 -0.9921 -0.0783
vn -0.1657 -0.1727 0.9709
vn 1.0000 -0.0000 -0.0000
vn 0.6923 0.7216 -0.0000
vn 0.3878 0.7832 -0.4860
vn 0.4985 0.7647 0.4084
vn 0.4437 0.8962 -0.0000
vn 0.4078 0.8235 0.3944
vn 0.3558 0.7185 0.5976
vn 0.7691 0.5431 -0.3370
vn 0.5209 0.8536 -0.0000
vn -0.0000 1.0000 -0.0000
vn -0.5741 0.6295 0.5235
vn -0.0000 0.8759 0.4825
vn -0.6888 0.7249 -0.0000
vn -0.8361 0.0532 -0.5460
vn -0.0000 0.9264 -0.3766
vn -0.0000 -0.5272 -0.8497
vt 0.887729 0.388478
vt 0.081095 0.407349
vt 0.095230 0.115963
vt 0.072369 0.405436
vt 0.288367 0.488101
vt 0.302391 0.115955
vt 0.081248 0.486115
vt 0.095230 0.323158
vt 0.288214 0.409335
vt 0.681708 0.390608
vt 0.000000 0.358177
vt 0.302391 0.323150
vt 0.095230 0.025261
vt 0.302391 0.025253
vt 0.095230 0.370420
vt 0.302391 0.370412
vt 0.356382 0.323148
vt 0.356382 0.115952
vt 0.022860 0.115966
vt 0.022860 0.323161
vt 0.302400 0.442011
vt 0.885729 0.423849
vt 0.288106 0.510987
vt 0.095230 0.407349
vt 0.285336 0.715725
vt 0.302391 0.407341
vt 0.078217 0.713739
vt 0.080988 0.509001
vt 0.685600 0.623761
vt 0.008497 0.125092
vt 0.683135 0.416603
vt 0.008497 0.332287
vt 0.866099 0.621896
vt 0.318077 0.464122
vt 0.863635 0.414737
vt 0.043361 0.998574
vt 0.883993 0.738922
vt 0.249610 1.000000
vt 0.677972 0.741051
vt 0.074669 0.008852
vt 0.684541 0.649220
vt 0.002299 0.099556
vt 0.890562 0.647090
vt 0.302400 0.492525
vt 0.624568 0.310885
vt 0.627203 0.388478
vt 0.922636 0.630355
vt 0.302400 0.407349
vt 0.418161 0.309756
vt 0.318077 0.407349
vt 0.420796 0.387349
vt 0.920171 0.423196
vt 0.000000 0.478877
vt 0.384585 0.310885
vt 0.387219 0.388478
vt 0.045861 0.407785
vt 0.922636 0.389703
vt 0.046013 0.486551
vt 0.393701 0.668301
vt 0.628820 0.058829
vt 0.633560 0.011110
vt 0.435872 0.672065
vt 0.422412 0.057700
vt 0.427152 0.009981
vt 0.435796 0.465339
vt 0.398913 0.435499
vt 0.004429 0.726478
vt 0.397011 0.062419
vt 0.443750 0.388478
vt 0.050442 0.734152
vt 0.441084 0.439263
vt 0.401751 0.014700
vt 0.284744 0.734152
vt 0.677972 0.391248
vt 0.323094 0.394069
vt 0.077625 0.732166
vt 0.471032 0.390631
vt 0.675306 0.442034
vt 0.377085 0.346805
vt 0.468367 0.441416
vt 0.675097 0.465933
vt 0.381470 0.323147
vt 0.468157 0.465316
vt 0.468233 0.672042
vt 0.675173 0.672659
vt 0.381470 0.115952
vt 0.043131 0.748125
vt 0.471032 0.772770
vt 0.249380 0.749551
vt 0.677972 0.773387
vt 0.325903 0.011252
vt 0.468316 0.685904
vt 0.675256 0.686521
vt 0.379894 0.101952
vt 0.044205 0.977430
vt 0.747038 0.301564
vt 0.250454 0.978855
vt 0.095230 0.000008
vt 0.044205 0.770773
vt 0.750490 0.096121
vt 0.250454 0.772198
vt 0.302391 0.000000
vt 0.636257 0.305640
vt 0.288367 0.492626
vt 0.911187 0.641254
vt 0.638891 0.383233
vt 0.288367 0.407449
vt 0.021339 0.991677
vt 0.904617 0.733086
vt 0.730454 0.311959
vt 0.634381 0.293021
vt 0.026219 0.978545
vt 0.728578 0.299340
vt 0.637833 0.087579
vt 0.026219 0.771888
vt 0.732030 0.093897
vt 0.649718 0.047719
vt 0.381471 0.690699
vt 0.654459 0.000000
vt 0.423642 0.694463
vt 0.426358 0.781329
vt 0.000000 0.734152
vt 0.743916 0.054037
vt 0.629306 0.086891
vt 0.422899 0.085762
vt 0.625854 0.292333
vt 0.419447 0.291205
vt 0.384922 0.083573
vt 0.013435 0.708419
vt 0.381470 0.289015
vt 0.016206 0.503681
vt 0.062219 0.511355
vt 0.059449 0.716093
s 0
usemtl Material
f 65/114/1 70/124/1 37/60/1 67/117/1
f 22/29/2 24/33/2 29/43/2 28/41/2
f 48/81/3 49/83/3 47/80/3 46/78/3
f 6/8/4 2/3/4 4/6/4 8/12/4
f 31/47/5 61/105/5 29/43/5 24/33/5
f 10/14/4 14/18/4 4/6/4
f 34/54/6 75/130/6 73/127/6 32/49/6
f 20/27/7 45/76/7 42/70/7 77/133/7
f 56/95/8 57/97/8 27/38/8 26/36/8
f 58/99/9 66/115/9 52/87/9
f 11/15/4 16/20/4 6/8/4
f 4/6/4 2/3/4 9/13/4 10/14/4
f 8/12/4 13/17/4 12/16/4
f 11/15/4 18/24/4 3/4/4
f 6/8/4 8/12/4 12/16/4 11/15/4
f 51/86/4 14/18/4 55/94/4
f 8/12/4 4/6/4 14/18/4 13/17/4
f 9/13/4 27/40/4 57/98/4
f 59/101/10 58/99/10 52/87/10 53/89/10
f 33/50/11 25/34/11 17/21/11
f 2/3/4 6/8/4 16/20/4 15/19/4
f 15/19/4 9/13/4 2/3/4
f 3/5/12 5/7/12 1/2/12 7/9/12
f 76/132/13 75/131/13 34/53/13 36/58/13
f 16/20/4 11/15/4 3/4/4 7/11/4
f 25/35/14 23/31/14 7/10/14 1/1/14
f 19/25/15 20/27/15 21/28/15 18/23/15
f 49/83/16 40/65/16 43/71/16 47/80/16
f 3/5/17 18/23/17 21/28/17 5/7/17
f 11/15/4 12/16/4 19/26/4 18/24/4
f 23/31/18 25/35/18 24/33/18 22/29/18
f 64/112/19 56/95/19 26/36/19 62/108/19
f 16/20/20 7/11/20 23/32/20
f 15/19/21 16/20/21 23/32/21 22/30/21
f 27/39/22 28/41/22 29/43/22 26/37/22
f 62/109/23 26/37/23 29/43/23 61/105/23
f 9/13/4 15/19/4 28/42/4 27/40/4
f 43/71/24 42/69/24 45/77/24 47/80/24
f 31/46/25 33/51/25 32/49/25 30/45/25
f 31/47/26 24/33/26 25/35/26 33/52/26
f 1/1/27 35/57/27 17/22/27 25/35/27
f 35/56/28 36/58/28 34/53/28
f 76/132/29 21/28/29 20/27/29 77/133/29
f 34/54/30 32/49/30 33/51/30 35/55/30
f 76/132/31 36/58/31 5/7/31 21/28/31
f 75/130/32 74/128/32 71/125/32 73/127/32
f 20/27/33 19/25/33 44/73/33 45/76/33
f 38/61/34 37/60/34 39/63/34 40/64/34
f 74/128/35 41/68/35 39/63/35 71/125/35
f 59/102/4 53/91/4 10/14/4
f 67/117/36 69/123/36 66/116/36 65/114/36
f 42/69/37 43/71/37 41/66/37
f 74/129/38 77/133/38 42/70/38 41/67/38
f 40/64/39 39/63/39 41/68/39 43/72/39
f 45/77/40 44/74/40 46/78/40 47/80/40
f 49/83/41 50/84/41 38/62/41 40/65/41
f 55/93/42 54/92/42 50/84/42 51/85/42
f 12/16/4 13/17/4 46/79/4 44/75/4
f 51/85/43 50/84/43 49/83/43 48/81/43
f 68/120/44 54/92/44 52/88/44 69/121/44
f 13/17/4 14/18/4 51/86/4 48/82/4
f 69/122/45 52/87/45 66/115/45
f 53/90/46 52/88/46 54/92/46 55/93/46
f 14/18/4 10/14/4 53/91/4 55/94/4
f 15/19/47 22/30/47 28/42/47
f 54/92/48 68/120/48 38/62/48 50/84/48
f 57/97/49 56/95/49 58/99/49 59/101/49
f 10/14/4 9/13/4 57/98/4 59/102/4
f 66/116/50 58/100/50 56/96/50 64/113/50
f 12/16/4 44/75/4 19/26/4
f 61/106/51 60/103/51 62/110/51
f 63/111/52 60/103/52 30/45/52 72/126/52
f 64/113/53 63/111/53 65/114/53 66/116/53
f 64/113/54 62/110/54 60/103/54 63/111/54
f 48/82/4 46/79/4 13/17/4
f 68/119/55 69/123/55 67/117/55
f 60/104/56 61/107/56 31/48/56 30/44/56
f 72/126/57 70/124/57 65/114/57 63/111/57
f 72/126/58 73/127/58 71/125/58 70/124/58
f 38/62/59 68/120/59 67/118/59 37/59/59
f 30/45/60 32/49/60 73/127/60 72/126/60
f 75/131/61 76/132/61 77/133/61 74/129/61
f 5/7/62 36/58/62 35/56/62 1/2/62
f 39/63/63 37/60/63 70/124/63 71/125/63
f 17/22/64 35/57/64 33/52/64
